<svg xmlns="http://www.w3.org/2000/svg" width="831.252" height="1803.066" viewBox="0 0 831.252 1803.066">
  <defs>
    <style>
      .cls-1 {
        fill: #fcb141;
        stroke: #000;
        stroke-width: 0.81px;
        fill-rule: evenodd;
      }
    </style>
  </defs>
  <path class="cls-1" d="M921,1901L736,1008h523l-182,892ZM584,866h830l-53,98H618Zm400-47c-3.1,6.535-235.921-50.636-267-191-19.445-87.82,42.31-198.915,122.2-256.8,8.038-5.825,68.9-41.361,101.8-73.2,15.51-15.006,36.882-39.262,51-75,19.28-48.81,18.82-81.429,5-103-7.288-11.372-20.014-19.477-19-21,1.074-1.614,14.43,4.6,28,13,30.44,18.835,56.44,49.052,64,59,38.78,51.057,67.84,92.249,77,131a228.79,228.79,0,0,1,6.43,53.314C1152.85,483.2,1015.34,596.722,992,615c-4.8,3.76-25.662,22.926-39,39-7.4,8.92-22.464,30.439-30,56-4.456,15.113-4.976,26.144-3,36,4.347,21.687,19.058,35.008,27,42C965.078,803.916,984.773,817.37,984,819Zm59-4c-32.34-14.128-64.426-48.078-65-88-0.354-24.628,11.165-43.863,25-62,25.55-33.5,56.31-58.574,80-80,14.24-12.874,41.46-46.467,64-75,12.2-15.449,30.04-40.874,41-73a228.166,228.166,0,0,0,12-64,216.538,216.538,0,0,0-4-53c-5.24-25.393-21.01-52-18-54,1.83-1.213,8.17,5.236,19,17,8.15,8.86,15.89,17.94,22,26,6.17,8.143,11.87,16.158,17,24a437.006,437.006,0,0,1,28,50c7.35,15.258,14.3,31.292,18,43,5.88,18.6,9.9,41.15,12,67,1.95,23.949,4.38,47.378,1,67-27.98,162.514-88.15,224.781-143.14,247.212C1107.17,825.44,1071.68,827.526,1043,815Z" transform="translate(-583.438 -98.344)"/>
</svg>
