<?xml version="1.0" standalone="no"?>
<!DOCTYPE svg PUBLIC "-//W3C//DTD SVG 20010904//EN"
 "http://www.w3.org/TR/2001/REC-SVG-20010904/DTD/svg10.dtd">
<svg version="1.0" xmlns="http://www.w3.org/2000/svg"
 width="1803.000000pt" height="1803.000000pt" viewBox="0 0 1803.000000 1803.000000"
 preserveAspectRatio="xMidYMid meet">
<metadata>
Created by potrace 1.14, written by Peter Selinger 2001-2017
</metadata>
<g transform="translate(0.000000,1803.000000) scale(0.100000,-0.100000)"
fill="#000000" stroke="none">
<path d="M8800 18024 c0 -4 38 -45 84 -91 106 -105 170 -215 192 -333 11 -54
13 -268 3 -315 -5 -27 -12 -66 -15 -85 -9 -57 -12 -75 -14 -75 -1 0 -3 -7 -5
-15 -1 -8 -8 -35 -15 -60 -7 -25 -12 -47 -12 -50 0 -3 -8 -26 -19 -51 -10 -26
-15 -50 -12 -53 4 -3 1 -6 -5 -6 -7 0 -11 -3 -11 -7 1 -5 0 -11 -1 -15 -1 -5
-3 -11 -5 -15 -2 -8 -11 -34 -25 -68 -4 -11 -20 -47 -35 -80 -16 -33 -34 -73
-42 -90 -7 -16 -24 -48 -38 -70 -14 -22 -28 -47 -32 -55 -7 -15 -51 -86 -66
-105 -4 -5 -31 -41 -59 -80 -133 -179 -272 -312 -548 -528 -9 -7 -38 -28 -65
-46 -28 -19 -53 -40 -57 -45 -5 -7 -8 -7 -8 -1 0 6 -5 2 -11 -7 -5 -10 -16
-18 -24 -18 -7 0 -15 -3 -17 -8 -4 -10 -186 -132 -197 -132 -5 0 -11 -4 -13
-8 -1 -4 -77 -55 -168 -112 -91 -57 -167 -106 -170 -109 -3 -4 -52 -44 -110
-91 -122 -98 -420 -394 -420 -417 0 -3 -8 -13 -18 -22 -39 -35 -220 -286 -266
-367 -9 -16 -25 -42 -36 -59 -31 -48 -151 -276 -156 -295 -1 -5 -29 -72 -44
-105 -15 -34 -62 -156 -64 -168 -2 -7 -15 -50 -29 -97 -60 -194 -88 -379 -89
-590 0 -326 82 -602 261 -869 20 -30 41 -61 46 -69 35 -52 163 -201 231 -267
96 -94 146 -138 285 -250 42 -33 243 -168 324 -216 50 -30 92 -56 95 -59 3 -3
32 -18 65 -34 33 -16 67 -36 77 -44 9 -7 22 -15 30 -16 23 -5 52 -19 81 -38
15 -11 27 -16 27 -12 0 3 6 2 13 -4 10 -8 111 -55 247 -114 14 -6 36 -16 50
-23 14 -7 27 -13 30 -12 3 1 48 -15 100 -35 99 -38 214 -78 234 -83 6 -1 18
-5 26 -8 20 -8 158 -48 181 -52 11 -2 23 -6 27 -9 5 -3 24 -8 43 -11 19 -3 41
-8 49 -10 28 -8 75 -17 100 -19 14 -1 30 -5 35 -8 6 -3 21 -1 35 4 l25 9 -25
21 c-14 11 -47 39 -74 62 -27 22 -58 48 -70 56 -12 8 -26 19 -32 25 -6 5 -26
21 -44 35 -36 28 -104 85 -132 113 -10 9 -22 17 -27 17 -5 0 -11 4 -13 9 -1 5
-25 34 -53 63 -27 29 -59 67 -71 83 -34 49 -83 149 -89 180 -2 11 -4 20 -5 20
-16 0 -24 215 -9 281 7 32 14 65 15 73 2 8 6 26 10 40 4 14 8 29 8 33 1 3 4
10 9 14 4 4 7 14 7 21 0 37 114 262 188 373 116 171 314 379 531 555 47 38 92
76 101 84 9 9 45 41 81 71 82 70 385 373 469 468 36 41 70 79 75 85 53 58 242
300 288 367 73 108 127 192 127 200 0 6 5 10 10 10 6 0 10 6 10 14 0 8 3 16 8
18 8 3 20 25 99 175 90 170 200 439 218 531 1 9 9 37 16 62 6 25 13 52 14 60
1 8 9 53 18 100 8 47 16 92 16 100 5 90 11 142 16 150 3 5 1 10 -5 10 -7 0 -8
7 -3 18 11 21 10 73 0 90 -5 7 -3 12 3 12 6 0 8 5 5 11 -4 6 -9 43 -10 82 -4
68 -7 100 -21 192 -4 22 -8 49 -9 60 -5 35 -55 229 -64 250 -5 11 -19 47 -32
80 -12 33 -27 69 -33 80 -6 11 -11 22 -11 25 -3 15 -61 126 -67 128 -5 2 -8 7
-8 12 0 12 -83 154 -92 158 -4 2 -8 8 -8 13 0 12 -161 253 -172 257 -4 2 -8 8
-8 13 0 6 -13 27 -28 47 -16 20 -50 66 -76 102 -26 36 -53 73 -61 82 -8 10
-26 36 -41 58 -15 22 -30 40 -34 40 -4 0 -11 8 -16 19 -39 81 -311 372 -470
501 -104 85 -261 190 -283 190 -6 0 -11 4 -11 8 0 10 -141 78 -182 88 -16 3
-28 3 -28 -2z"/>
<path d="M10797 16347 c-3 -7 22 -80 55 -162 33 -83 64 -159 68 -170 18 -46
24 -61 26 -75 6 -32 10 -45 15 -55 4 -5 10 -28 14 -50 5 -22 10 -47 12 -55 7
-32 13 -77 18 -135 3 -33 8 -76 10 -95 7 -45 6 -245 0 -335 -6 -78 -16 -160
-30 -235 -3 -14 -7 -38 -10 -55 -2 -16 -9 -45 -14 -62 -5 -18 -7 -33 -4 -33 3
0 0 -7 -7 -15 -7 -8 -10 -15 -6 -15 3 0 0 -16 -8 -35 -8 -19 -13 -35 -11 -35
4 0 -53 -162 -79 -225 -10 -22 -18 -42 -19 -45 -6 -20 -109 -210 -150 -275
-65 -105 -188 -275 -199 -275 -4 0 -8 -4 -8 -10 0 -8 -84 -117 -159 -206 -14
-18 -42 -51 -61 -75 -19 -24 -48 -57 -64 -74 -16 -16 -28 -31 -25 -31 2 -1
-21 -30 -51 -64 -30 -35 -73 -84 -95 -109 -51 -60 -205 -211 -286 -281 -277
-241 -489 -453 -632 -634 -27 -34 -54 -68 -61 -76 -63 -79 -168 -256 -180
-305 -2 -5 -6 -17 -9 -25 -17 -42 -37 -132 -42 -189 -3 -36 -8 -68 -11 -73 -3
-4 -1 -8 3 -8 5 0 8 -17 7 -38 -1 -36 21 -162 33 -192 3 -8 7 -20 9 -27 5 -27
98 -207 114 -223 3 -3 18 -23 34 -45 49 -66 187 -197 266 -251 164 -112 336
-178 473 -179 20 0 37 -3 37 -6 0 -12 299 4 321 17 7 4 77 17 97 17 6 0 12 4
12 9 0 5 4 6 10 3 5 -3 72 14 147 40 147 48 147 48 235 89 32 15 61 27 65 27
5 1 19 9 33 18 14 10 32 21 40 25 27 13 135 82 156 101 7 5 29 24 49 40 93 75
136 116 230 220 15 17 56 66 90 110 52 67 81 108 147 209 36 54 198 364 198
378 0 3 12 32 27 64 14 33 27 64 29 69 1 6 15 44 32 86 29 73 70 189 77 219 2
8 11 37 20 64 9 26 18 56 20 65 2 9 16 57 30 106 14 50 27 99 29 110 2 11 9
38 14 60 6 22 13 51 16 65 3 14 8 36 11 50 13 57 28 127 31 150 2 14 8 48 14
75 6 28 13 61 16 75 2 14 6 35 9 47 23 100 23 359 0 599 -3 32 -7 86 -10 119
-2 33 -6 76 -9 95 -8 53 -17 120 -22 170 -2 25 -6 51 -9 59 -3 8 -8 30 -11 50
-3 20 -8 43 -11 51 -3 8 -7 33 -10 55 -3 22 -9 44 -14 49 -5 6 -9 17 -9 26 0
18 -45 161 -65 205 -8 17 -26 59 -40 95 -15 36 -37 85 -49 110 -13 25 -23 47
-23 50 -2 9 -87 185 -93 190 -3 3 -23 41 -45 84 -22 43 -44 84 -50 90 -5 6
-21 31 -34 56 -14 25 -42 71 -63 103 -21 32 -38 63 -38 68 0 5 -4 9 -8 9 -4 0
-16 13 -25 30 -16 27 -98 138 -181 245 -17 22 -39 46 -48 53 -10 7 -18 17 -18
22 0 4 -19 28 -42 53 -223 234 -238 247 -251 214z"/>
<path d="M4883 10362 c-23 -3 -29 -13 -16 -26 4 -3 8 -12 9 -19 1 -7 14 -43
28 -82 15 -38 26 -71 25 -73 -1 -3 14 -46 31 -87 5 -11 16 -45 26 -75 9 -30
19 -59 23 -65 3 -5 6 -12 7 -15 5 -26 18 -67 25 -75 4 -6 10 -22 13 -35 7 -35
103 -310 110 -317 3 -4 6 -12 6 -19 0 -7 4 -23 9 -36 5 -13 10 -27 11 -33 1
-5 6 -15 10 -21 10 -11 7417 -14 7436 -2 5 4 23 33 39 65 16 32 34 61 40 65 5
4 6 8 2 8 -5 0 0 12 11 28 10 15 26 44 35 64 10 20 22 40 27 43 6 3 10 15 10
25 0 10 4 20 8 22 8 2 113 195 146 265 6 13 14 23 19 23 4 0 7 8 7 19 0 10 7
24 15 31 8 7 15 16 15 20 0 6 35 73 131 248 l28 52 -32 1 c-133 2 -8237 3
-8254 1z"/>
<path d="M6412 8942 c-27 -3 -31 -7 -27 -25 3 -12 7 -33 9 -47 2 -14 11 -56
20 -95 9 -38 18 -81 20 -95 3 -14 5 -25 6 -25 1 0 3 -11 6 -25 2 -14 8 -45 14
-70 5 -25 12 -56 14 -70 11 -57 17 -86 21 -100 2 -8 7 -28 10 -45 2 -16 7 -39
9 -50 7 -29 46 -215 51 -245 3 -14 10 -47 16 -75 6 -27 13 -61 15 -75 3 -14
11 -56 20 -95 24 -115 25 -119 30 -150 3 -16 14 -67 25 -113 10 -45 19 -94 19
-107 0 -14 5 -25 11 -25 5 0 8 -4 4 -9 -3 -5 0 -31 6 -58 6 -26 13 -57 15 -68
1 -11 5 -31 9 -45 3 -14 8 -41 11 -60 3 -19 9 -48 14 -65 6 -16 11 -42 12 -57
1 -16 5 -28 8 -28 3 0 6 -12 7 -28 1 -28 21 -126 31 -152 3 -8 4 -19 3 -23 -1
-5 5 -36 13 -70 8 -34 17 -75 20 -92 21 -102 19 -97 29 -135 7 -27 16 -70 22
-112 2 -15 8 -44 14 -65 13 -50 23 -104 22 -125 0 -10 4 -18 8 -18 4 0 7 -10
6 -22 -1 -13 2 -34 7 -47 4 -13 10 -38 13 -55 2 -17 7 -42 10 -56 3 -14 8 -36
10 -50 2 -14 9 -44 15 -68 5 -23 13 -59 16 -80 3 -20 8 -41 11 -45 2 -4 7 -24
9 -45 3 -20 9 -53 14 -72 5 -19 12 -52 16 -74 3 -21 8 -48 11 -60 5 -22 21
-96 28 -131 2 -11 4 -20 5 -20 1 0 3 -11 6 -25 4 -26 20 -107 30 -150 3 -14 7
-36 10 -50 2 -14 9 -45 14 -70 5 -25 12 -56 15 -70 8 -42 35 -170 55 -265 11
-49 22 -105 25 -124 3 -19 8 -38 10 -42 3 -4 7 -24 10 -44 2 -21 7 -45 9 -54
3 -9 7 -27 10 -41 3 -14 8 -36 11 -50 3 -14 7 -36 10 -50 8 -42 24 -121 39
-190 8 -36 12 -68 9 -72 -2 -5 -1 -8 4 -8 4 0 9 -12 10 -28 4 -40 8 -56 16
-69 5 -7 6 -13 4 -13 -3 0 -1 -17 4 -37 5 -21 12 -54 15 -73 8 -61 12 -79 19
-91 4 -6 9 -27 10 -47 2 -20 4 -37 5 -37 1 0 3 -7 5 -15 1 -8 8 -42 16 -75 7
-33 14 -67 15 -75 4 -19 16 -82 20 -95 1 -5 5 -26 8 -45 4 -19 9 -43 12 -53 3
-11 7 -29 9 -40 2 -12 6 -33 9 -47 6 -26 33 -156 41 -198 2 -13 6 -31 9 -40 3
-9 7 -33 10 -52 3 -19 8 -46 11 -60 3 -14 8 -36 11 -50 3 -14 7 -32 9 -40 2
-8 7 -31 10 -50 3 -19 9 -44 12 -55 4 -11 7 -27 8 -35 1 -8 7 -40 13 -70 6
-30 14 -66 16 -80 3 -14 19 -90 36 -170 36 -171 50 -236 56 -270 4 -23 13 -65
21 -100 2 -8 5 -24 8 -35 2 -11 6 -33 9 -50 4 -16 9 -43 13 -60 4 -16 7 -32 8
-35 0 -3 4 -21 8 -40 4 -19 9 -46 12 -60 3 -14 8 -38 11 -55 3 -16 9 -47 13
-67 5 -21 7 -38 4 -38 -3 0 0 -6 6 -13 6 -8 13 -31 16 -53 7 -56 25 -144 51
-259 3 -11 7 -29 8 -40 2 -11 9 -42 15 -68 6 -27 9 -53 6 -58 -4 -5 -2 -9 3
-9 5 0 9 -6 9 -12 2 -21 11 -67 37 -193 14 -66 28 -133 30 -150 2 -16 7 -37
10 -45 3 -8 7 -28 10 -45 3 -16 15 -73 26 -125 11 -52 22 -108 25 -125 3 -16
10 -45 15 -64 5 -19 7 -38 4 -42 -2 -4 0 -10 5 -14 5 -3 9 -13 9 -23 0 -9 7
-48 16 -85 9 -38 13 -73 10 -78 -4 -6 258 -8 713 -5 395 3 750 6 789 6 l71 0
11 53 c6 28 14 67 17 86 3 19 8 38 10 42 3 4 7 22 9 41 3 18 7 45 11 58 3 14
8 39 10 55 2 17 5 30 6 30 1 0 3 9 4 20 2 11 11 54 20 95 9 41 19 84 21 95 6
38 14 80 21 110 4 17 7 32 8 35 0 3 4 21 8 40 4 19 9 46 12 60 3 14 8 39 10
55 3 17 8 37 10 45 4 14 13 61 21 105 1 11 14 71 27 133 14 62 25 115 26 117
1 3 1 6 2 8 0 1 2 11 4 22 5 34 14 82 52 255 3 14 7 36 8 50 2 14 4 25 5 25 1
0 3 11 6 25 4 24 23 118 31 150 2 8 6 26 8 40 2 14 7 35 10 47 12 51 16 69 20
98 5 32 12 67 15 75 1 3 3 10 4 15 2 12 19 98 21 105 1 3 5 28 10 55 10 57 12
63 15 70 1 3 3 8 4 13 4 16 16 79 21 112 3 19 11 55 16 80 6 25 13 56 15 70
19 104 36 187 41 200 3 8 7 22 8 30 1 12 15 88 20 110 6 31 18 90 21 110 3 14
9 41 14 60 5 19 12 51 15 70 3 19 8 42 10 50 2 8 7 29 10 45 6 34 12 69 20
105 3 14 7 34 9 45 2 11 11 54 19 95 23 111 26 122 32 155 3 17 9 48 15 70 10
44 31 148 36 180 1 11 12 63 24 115 11 52 21 105 22 118 1 12 6 22 11 22 4 0
6 4 3 8 -2 4 2 39 10 77 8 39 17 81 19 95 2 14 7 36 10 50 6 25 22 104 30 150
6 31 11 53 24 110 5 25 13 61 16 80 9 46 13 65 15 65 1 0 4 18 6 40 3 21 9 44
14 50 6 7 8 14 5 17 -3 3 0 29 6 57 6 29 12 60 14 69 2 9 4 17 5 17 1 0 3 9 4
20 2 11 6 34 10 50 3 17 8 41 11 55 4 23 17 85 30 150 3 14 8 36 10 50 3 14
25 124 51 245 25 121 47 229 49 240 1 11 3 20 5 20 1 0 3 9 5 20 5 35 19 108
31 165 3 14 7 36 10 50 3 14 7 32 9 40 2 8 7 29 10 45 6 35 9 51 31 160 9 44
18 87 19 95 2 8 4 15 5 15 1 0 6 23 14 75 2 14 9 45 14 70 6 25 13 58 16 74 5
28 20 102 32 156 3 14 7 36 10 50 3 14 16 80 30 146 14 67 27 134 30 150 3 16
7 37 10 46 3 10 7 30 10 45 3 16 7 39 10 53 3 14 7 34 9 45 2 11 6 31 9 45 6
26 12 56 20 100 7 37 14 71 47 230 17 80 32 156 34 170 2 14 4 25 5 25 1 0 3
9 5 20 2 11 7 36 11 55 4 19 8 42 9 50 1 8 5 24 8 35 4 11 9 38 13 60 3 22 13
69 21 105 8 36 17 79 20 95 2 17 6 37 9 45 3 8 8 29 10 45 2 17 11 62 19 100
15 68 20 91 29 138 3 12 7 32 10 43 2 12 7 38 10 58 3 20 10 54 15 76 6 29 6
40 -3 41 -38 2 -5167 3 -5194 1z"/>
</g>
</svg>
